<svg width="20" height="21" viewBox="0 0 20 21" fill="none" xmlns="http://www.w3.org/2000/svg">
<rect x="0.0071106" y="0.423859" width="1.53997" height="1.53843" fill="white"/>
<rect x="7.69244" y="18.8839" width="1.53997" height="1.53843" fill="white"/>
<rect x="10.773" y="0.422882" width="1.53997" height="1.53843" fill="white"/>
<rect x="12.3124" y="3.50055" width="1.53997" height="1.53843" fill="white"/>
<rect x="13.8521" y="6.57672" width="1.53997" height="1.53843" fill="white"/>
<rect x="18.4595" y="9.65347" width="1.53997" height="1.53843" fill="white"/>
<rect x="18.4595" y="12.7319" width="1.53997" height="1.53843" fill="white"/>
<rect y="6.57501" width="1.53997" height="1.53843" fill="white"/>
<rect y="9.65347" width="1.53997" height="1.53843" fill="white"/>
<rect x="4.61331" y="12.7319" width="1.53997" height="1.53843" fill="white"/>
<rect x="6.15277" y="15.808" width="1.53997" height="1.53843" fill="white"/>
<rect x="18.4601" y="18.8839" width="1.53997" height="1.53843" fill="white"/>
<rect x="13.8461" y="0.423157" width="6.15355" height="1.53843" fill="white"/>
<rect x="15.3916" y="3.49991" width="4.60793" height="1.53843" fill="white"/>
<rect x="16.9312" y="6.57706" width="3.06836" height="1.53843" fill="white"/>
<rect x="6.15701" y="20.4232" width="6.15169" height="1.53843" transform="rotate(-180 6.15701 20.4232)" fill="white"/>
<rect x="4.61331" y="17.3464" width="4.60785" height="1.53843" transform="rotate(-180 4.61331 17.3464)" fill="white"/>
<rect x="3.07373" y="14.2693" width="3.06832" height="1.53843" transform="rotate(-180 3.07373 14.2693)" fill="white"/>
<rect x="3.08444" y="0.423157" width="6.14787" height="1.53843" fill="white"/>
<rect x="0.00531006" y="3.5" width="10.7657" height="1.53843" fill="white"/>
<rect x="3.08444" y="6.57687" width="9.22481" height="1.53843" fill="white"/>
<rect x="3.08472" y="9.65384" width="6.14892" height="1.53843" fill="white"/>
<rect x="10.7711" y="9.65384" width="6.16007" height="1.53843" fill="white"/>
<rect x="7.69531" y="12.7306" width="9.22514" height="1.53843" fill="white"/>
<rect x="9.23361" y="15.8075" width="10.766" height="1.53843" fill="white"/>
<rect x="10.7715" y="18.8844" width="6.14892" height="1.53843" fill="white"/>
<rect x="7.69559" y="14.269" width="4.61527" height="1.53843" transform="rotate(-90 7.69559 14.269)" fill="white"/>
<rect x="9.23331" y="17.3462" width="4.61527" height="1.53843" transform="rotate(-90 9.23331 17.3462)" fill="white"/>
<rect x="10.7715" y="20.4231" width="4.61527" height="1.53843" transform="rotate(-90 10.7715 20.4231)" fill="white"/>
<rect x="10.7713" y="11.1922" width="4.61527" height="1.53843" transform="rotate(-90 10.7713 11.1922)" fill="white"/>
<rect x="9.23331" y="8.11539" width="4.61527" height="1.53843" transform="rotate(-90 9.23331 8.11539)" fill="white"/>
<rect x="7.69531" y="5.03836" width="4.61527" height="1.53843" transform="rotate(-90 7.69531 5.03836)" fill="white"/>
</svg>
